<svg id="Capa_1" data-name="Capa 1" xmlns="http://www.w3.org/2000/svg" viewBox="0 0 24 24"><defs><style>.cls-1{fill:#e7edf4;}.cls-2{fill:#b8bfce;}.cls-3{fill:none;}.cls-3,.cls-4,.cls-5{stroke:#000;stroke-miterlimit:10;}.cls-4{fill:#ffbf3e;}.cls-5{stroke-width:0.5px;}</style></defs><path class="cls-1" d="M5,23.5A1.54,1.54,0,0,1,3.5,22V5.21L8.21.5H19A1.54,1.54,0,0,1,20.5,2V22A1.54,1.54,0,0,1,19,23.5Z"/><path d="M19,1a1,1,0,0,1,1,1V22a1,1,0,0,1-1,1H5a1,1,0,0,1-1-1V5.41L8.41,1H19m0-1H8L3,5V22a2,2,0,0,0,2,2H19a2,2,0,0,0,2-2V2a2,2,0,0,0-2-2Z"/><path class="cls-2" d="M3.5,5.5V5.21L8.21.5H8.5V4A1.54,1.54,0,0,1,7,5.5Z"/><path d="M8,1.41V4A1,1,0,0,1,7,5H4.41L8,1.41M9,0H8L3,5V6H7A2,2,0,0,0,9,4V0Z"/><line class="cls-3" x1="5" y1="7.5" x2="14" y2="7.5"/><line class="cls-3" x1="5" y1="10.5" x2="14" y2="10.5"/><line class="cls-3" x1="16" y1="7.5" x2="19" y2="7.5"/><line class="cls-3" x1="16" y1="10.5" x2="19" y2="10.5"/><line class="cls-3" x1="5" y1="13.5" x2="9.08" y2="13.5"/><line class="cls-3" x1="5" y1="16.5" x2="9.08" y2="16.5"/><circle class="cls-4" cx="15" cy="17.81" r="4"/><path class="cls-5" d="M13.81,18.64a1.2,1.2,0,0,0,1.22.85c.79,0,1.13-.33,1.13-.78s-.22-.7-1.2-.88c-1.13-.2-1.48-.58-1.48-1.18S14,15.52,15,15.52a1.44,1.44,0,0,1,1.57,1.15h-.51c-.05-.24-.27-.73-1.09-.73s-1,.36-1,.69.3.58,1.17.74c1.23.23,1.54.75,1.54,1.28,0,.68-.49,1.26-1.66,1.26a1.55,1.55,0,0,1-1.7-1.27Zm1-3V15h.46v.68Zm0,4.95v-.8h.46v.8Z"/></svg>